<svg xmlns="http://www.w3.org/2000/svg" x="0px" y="0px" width="48" height="48" viewBox="0 0 24 24">
<path d="M9,3C4.582,3,1,5.91,1,9.5c0,2.138,1.277,4.03,3.238,5.214l-0.778,1.75c-0.199,0.447,0.245,0.91,0.626,0.652l2.224-1.501	C7.152,15.86,8.055,16,9,16c0.09,0,0.177-0.009,0.267-0.011C9.097,15.515,9,15.017,9,14.5C9,11.462,12.134,9,16,9	c0.331,0,0.654,0.024,0.973,0.059C16.692,5.676,13.235,3,9,3z M6,9C5.448,9,5,8.552,5,8c0-0.552,0.448-1,1-1s1,0.448,1,1	C7,8.552,6.552,9,6,9z M11,9c-0.552,0-1-0.448-1-1c0-0.552,0.448-1,1-1s1,0.448,1,1C12,8.552,11.552,9,11,9z"></path><circle cx="6" cy="8" r="1" opacity=".35"></circle><circle cx="11" cy="8" r="1" opacity=".35"></circle><path d="M23,14.5c0-3.038-3.134-5.5-7-5.5s-7,2.462-7,5.5c0,3.038,3.134,5.5,7,5.5	c0.826,0,1.615-0.118,2.351-0.325l1.677,0.838c0.382,0.191,0.812-0.154,0.709-0.568l-0.298-1.193C22.002,17.744,23,16.214,23,14.5z M14,14c-0.552,0-1-0.448-1-1c0-0.552,0.448-1,1-1s1,0.448,1,1C15,13.552,14.552,14,14,14z M18,14c-0.552,0-1-0.448-1-1	c0-0.552,0.448-1,1-1s1,0.448,1,1C19,13.552,18.552,14,18,14z" opacity=".35"></path><circle cx="18" cy="13" r="1"></circle><circle cx="14" cy="13" r="1"></circle>
</svg>